<?xml version="1.0" encoding="UTF-8"?>
<svg width="448px" height="251px" viewBox="0 0 448 251" version="1.1" xmlns="http://www.w3.org/2000/svg" xmlns:xlink="http://www.w3.org/1999/xlink">
    <!-- Generator: Sketch 55.2 (78181) - https://sketchapp.com -->
    <title>Group 3</title>
    <desc>Created with Sketch.</desc>
    <g id="Colla-GUI" stroke="none" stroke-width="1" fill="none" fill-rule="evenodd">
        <g id="App-Install" transform="translate(-96.000000, -283.000000)">
            <g id="Group-3" transform="translate(96.000000, 283.000000)">
                <g id="Group-2" transform="translate(248.000000, 75.000000)" fill="#1D2087">
                    <g id="logo_colla" transform="translate(0.000000, 35.000000)">
                        <path d="M32.2926036,65.8659763 C13.9050296,65.8659763 0,51.4121302 0,32.9331361 C0,14.362426 13.9050296,-8.40878977e-15 32.2926036,-8.40878977e-15 C44.6881657,-8.40878977e-15 55.5011834,6.24733728 59.1677515,15.3242604 C59.4621302,16.0535503 59.1482249,16.8866864 58.4384615,17.2254438 L48.8923077,21.7816568 C48.1789941,22.1221893 47.3328402,21.8357988 46.9538462,21.1423077 C44.2967456,16.2837278 38.9556213,13.1730769 32.2926036,13.1730769 C21.406213,13.1730769 13.9050296,21.589645 13.9050296,32.9331361 C13.9050296,44.1852071 21.406213,52.6928994 32.2926036,52.6928994 C39.383432,52.6928994 44.9943787,49.2653846 47.4,43.7760355 C47.733432,43.0156805 48.6150888,42.6650888 49.3707101,43.0097633 L59.1671598,47.4757396 C59.8745562,47.7982249 60.2097633,48.6136095 59.9381657,49.341716 C56.2831361,59.1523669 45.0849112,65.8659763 32.2926036,65.8659763" id="Fill-1"></path>
                        <path d="M75.8360355,42.5385503 C75.8360355,48.7592604 80.4102959,53.5160651 86.5395858,53.5160651 C92.5771598,53.5160651 97.2425444,48.7592604 97.2425444,42.5385503 C97.2425444,36.1347041 92.5771598,31.4693195 86.5395858,31.4693195 C80.4102959,31.4693195 75.8360355,36.1347041 75.8360355,42.5385503 M109.866805,42.5385503 C109.866805,55.8947633 99.7126627,65.8660651 86.5395858,65.8660651 C73.2747929,65.8660651 63.2117751,55.8947633 63.2117751,42.5385503 C63.2117751,29.1823373 73.2747929,19.1196154 86.5395858,19.1196154 C99.7126627,19.1196154 109.866805,29.1823373 109.866805,42.5385503" id="Fill-3"></path>
                        <path d="M126.319408,64.9512426 L116.375325,64.9512426 C115.559349,64.9512426 114.898107,64.29 114.898107,63.4740237 L114.898107,2.39207101 C114.898107,1.57609467 115.559349,0.914852071 116.375325,0.914852071 L126.319408,0.914852071 C127.135385,0.914852071 127.796627,1.57609467 127.796627,2.39207101 L127.796627,63.4740237 C127.796627,64.29 127.135385,64.9512426 126.319408,64.9512426" id="Fill-6"></path>
                        <path d="M146.170473,64.9512426 L136.226391,64.9512426 C135.410414,64.9512426 134.749172,64.29 134.749172,63.4740237 L134.749172,2.39207101 C134.749172,1.57609467 135.410414,0.914852071 136.226391,0.914852071 L146.170473,0.914852071 C146.98645,0.914852071 147.647692,1.57609467 147.647692,2.39207101 L147.647692,63.4740237 C147.647692,64.29 146.98645,64.9512426 146.170473,64.9512426" id="Fill-8"></path>
                        <path d="M186.89284,47.5973373 L186.89284,37.4683432 C186.89284,37.1757396 186.803491,36.8914201 186.64432,36.6461538 C184.638698,33.5568047 180.761479,31.2863905 176.464142,31.2863905 C170.151716,31.2863905 165.303195,36.0434911 165.303195,42.4470414 C165.303195,48.8505917 170.151716,53.6076923 176.464142,53.6076923 C180.753787,53.6076923 184.624793,51.4292899 186.633373,48.4357988 C186.800237,48.1872781 186.89284,47.8964497 186.89284,47.5973373 M199.791657,21.5115385 L199.791657,63.4739645 C199.791657,64.2899408 199.130118,64.9511834 198.314142,64.9511834 L188.370059,64.9511834 C187.554083,64.9511834 186.89284,64.2899408 186.89284,63.4739645 C186.89284,62.2346154 185.461183,61.547929 184.494024,62.3227811 C181.784556,64.4934911 177.779822,65.8659763 173.628047,65.8659763 C161.91858,65.8659763 152.678935,55.4372781 152.678935,42.4470414 C152.678935,29.4568047 161.91858,19.1195266 173.628047,19.1195266 C177.72213,19.1195266 181.767396,20.4985207 184.498462,22.6778107 C185.46503,23.4494083 186.89284,22.7597633 186.89284,21.5230769 L186.89284,21.5115385 C186.89284,20.6955621 187.554083,20.0343195 188.370059,20.0343195 L198.314142,20.0343195 C199.130118,20.0343195 199.791657,20.6955621 199.791657,21.5115385" id="Fill-10"></path>
                    </g>
                    <path d="M83.5883424,17.5384615 L83.5883424,0.730769231 L66,0.730769231 L66,3.04487179 L80.9872495,3.04487179 L80.9872495,15.224359 L66,15.224359 L66,17.5384615 L83.5883424,17.5384615 Z M132.3898,2.31410256 L132.3898,0 L116.535519,0 L116.535519,2.31410256 L132.3898,2.31410256 Z M118.591621,19 C128.863874,18.3666667 134,14.2824786 134,6.7474359 L134,6.7474359 L134,6.26025641 L114.677596,6.26025641 L114.677596,8.59871795 L131.200729,8.59871795 C130.771342,11.2457265 129.429508,13.1985043 127.175228,14.4570513 C124.920947,15.7155983 121.927626,16.458547 118.195264,16.6858974 L118.195264,16.6858974 L118.591621,19 Z" id="コラ" fill-rule="nonzero"></path>
                </g>
                <g id="img_colla_chara">
                    <path d="M175.555556,109.56779 C166.486392,100.540325 160.922846,74.293633 160.402497,70.6027466 C155.394007,35.0546816 130.409988,4.93358302 97.6916355,0.650686642 C95.0771536,0.308364544 87.5183521,0 84.8791511,0 C49.2137328,0 20.3011236,31.4277154 20.3011236,70.1957553 C20.3011236,72.7812734 20.4302122,75.3340824 20.6811486,77.8464419 C22.8347066,99.3932584 19.5313358,121.432459 8.32933833,139.963546 C3.04719101,148.701373 -4.257934e-14,158.98402 -4.257934e-14,170 C-4.257934e-14,201.802996 25.3538077,227.584769 56.6289638,227.584769 C65.5373283,227.584769 73.9510612,225.48015 81.4369538,221.741823 C92.5770287,216.178027 105.487391,216.22372 116.991511,220.989763 C123.924844,223.861923 131.49563,225.44794 139.435955,225.44794 C172.776529,225.44794 199.804494,197.702372 199.804494,163.476404 C199.804494,140.995506 190.119351,124.064419 175.555556,109.56779" id="Fill-1" fill="#1D2087"></path>
                    <path d="M141.531186,120.967116 C141.403845,121.474232 141.268514,121.972609 141.132185,122.469988 C140.944919,123.586092 140.922447,123.391086 141.531186,120.967116" id="Fill-4" fill="#FFFFFF"></path>
                    <path d="M141.531186,120.967116 C141.403845,121.474232 141.268514,121.972609 141.132185,122.469988 C140.944919,123.586092 140.922447,123.391086 141.531186,120.967116 Z" id="Stroke-6" stroke="#0A338A" stroke-width="0.5"></path>
                    <path d="M77.7820225,243.217628 L132.724594,212.544719 C126.973283,209.25633 120.266916,207.24809 112.491136,207.24809 C102.571036,207.24809 80.9600499,213.405893 65.3780275,219.813633 L77.7820225,243.217628 Z" id="Fill-8" fill="#FFFFFF"></path>
                    <path d="M77.7820225,243.217628 L132.724594,212.544719 C126.973283,209.25633 120.266916,207.24809 112.491136,207.24809 C102.571036,207.24809 80.9600499,213.405893 65.3780275,219.813633 L77.7820225,243.217628 Z" id="Stroke-10" stroke="#E61F19" stroke-width="0.5"></path>
                    <path d="M29.8724345,250.42005 L159.287416,250.42005 C153.260699,231.793833 139.16407,207.372859 112.491161,207.372859 C99.4606991,207.372859 69.9273658,211.572859 56.7221223,219.708439 C44.1391011,227.460999 33.5942821,242.818302 29.8724345,250.42005" id="Fill-12" fill="#1D2087"></path>
                    <path d="M29.8724345,250.42005 L159.287416,250.42005 C153.260699,231.793833 139.16407,207.372859 112.491161,207.372859 C99.4606991,207.372859 69.9273658,211.572859 56.7221223,219.708439 C44.1391011,227.460999 33.5942821,242.818302 29.8724345,250.42005 Z" id="Stroke-14" stroke="#1D2087" stroke-width="0.5"></path>
                    <path d="M109.586017,171.245593 C109.586017,166.985169 110.615231,158.819625 111.403745,154.789663 L82.0938826,175.918502 L85.2781523,196.587665 C85.7225968,199.464819 85.3785268,202.429613 84.1540574,205.070811 C80.7210986,212.474557 71.913608,218.838851 64.2986267,218.990662 C64.1802747,218.993159 64.1163546,219.122497 64.1860175,219.218127 L68.5770287,225.21563 L110.012734,224.802397 L132.612235,212.656579 C132.93608,212.482297 132.890387,212.015131 132.542322,211.89628 C118.503121,207.099775 109.586017,192.329988 109.586017,171.245593" id="Fill-16" fill="#FFFFFF"></path>
                    <path d="M109.586017,171.245593 C109.586017,166.985169 110.615231,158.819625 111.403745,154.789663 L82.0938826,175.918502 L85.2781523,196.587665 C85.7225968,199.464819 85.3785268,202.429613 84.1540574,205.070811 C80.7210986,212.474557 71.913608,218.838851 64.2986267,218.990662 C64.1802747,218.993159 64.1163546,219.122497 64.1860175,219.218127 L68.5770287,225.21563 L110.012734,224.802397 L132.612235,212.656579 C132.93608,212.482297 132.890387,212.015131 132.542322,211.89628 C118.503121,207.099775 109.586017,192.329988 109.586017,171.245593 Z" id="Stroke-18" stroke="#1D2087" stroke-width="0.5" stroke-linecap="round"></path>
                    <polyline id="Fill-20" fill="#FFFFFF" points="64.4339576 219.322447 77.0377029 243.810087 132.523096 212.54417"></polyline>
                    <polyline id="Stroke-22" stroke="#1D2087" stroke-width="0.5" stroke-linecap="round" points="64.4339576 219.322447 77.0377029 243.810087 132.523096 212.54417"></polyline>
                    <path d="M107.188365,160.391236 C112.057278,155.110087 117.665518,148.407466 118.917203,144.965518 C120.773134,139.861398 121.237303,140.789488 122.813333,134.086866 C124.459526,135.743795 126.423571,136.765518 128.59186,136.908839 C135.005593,137.333059 139.265518,129.769263 141.881248,120.222697 C142.512959,116.457903 145.020325,97.7353059 131.531935,98.9145818 C128.434307,99.1854931 125.470512,100.848414 123.084994,103.571511 L123.084994,80.5235705 C123.084994,54.4713858 101.965643,33.352035 75.9134582,33.352035 C49.8612734,33.352035 28.7419226,54.4713858 28.7419226,80.5235705 L28.9421723,127.613708 C31.9601498,152.746792 46.4772534,176.512085 69.7206991,177.367266 C76.4058427,177.549039 84.2278152,175.680624 90.8025968,172.839176" id="Fill-24" fill="#FFFFFF"></path>
                    <path d="M107.188365,160.391236 C112.057278,155.110087 117.665518,148.407466 118.917203,144.965518 C120.773134,139.861398 121.237303,140.789488 122.813333,134.086866 C124.459526,135.743795 126.423571,136.765518 128.59186,136.908839 C135.005593,137.333059 139.265518,129.769263 141.881248,120.222697 C142.512959,116.457903 145.020325,97.7353059 131.531935,98.9145818 C128.434307,99.1854931 125.470512,100.848414 123.084994,103.571511 L123.084994,80.5235705 C123.084994,54.4713858 101.965643,33.352035 75.9134582,33.352035 C49.8612734,33.352035 28.7419226,54.4713858 28.7419226,80.5235705 L28.9421723,127.613708 C31.9601498,152.746792 46.4772534,176.512085 69.7206991,177.367266 C76.4058427,177.549039 84.2278152,175.680624 90.8025968,172.839176" id="Stroke-26" stroke="#1D2087" stroke-width="2.4968789" stroke-linecap="round"></path>
                    <path d="M45.1324095,116.406167 L43.9274157,116.406167 C41.9199251,116.406167 40.2922097,114.778452 40.2922097,112.770961 L40.2922097,107.512784 C40.2922097,105.505044 41.9199251,103.877578 43.9274157,103.877578 L45.1324095,103.877578 C47.1401498,103.877578 48.7676155,105.505044 48.7676155,107.512784 L48.7676155,112.770961 C48.7676155,114.778452 47.1401498,116.406167 45.1324095,116.406167" id="Fill-28" fill="#1D2087"></path>
                    <path d="M88.7775531,116.406167 L88.016005,116.406167 C85.6949064,116.406167 83.8132584,114.524519 83.8132584,112.203421 L83.8132584,107.431885 C83.8132584,105.110787 85.6949064,103.229139 88.016005,103.229139 L88.7775531,103.229139 C91.0986517,103.229139 92.9802996,105.110787 92.9802996,107.431885 L92.9802996,112.203421 C92.9802996,114.524519 91.0986517,116.406167 88.7775531,116.406167" id="Fill-30" fill="#1D2087"></path>
                    <path d="M40.6119351,101.481223 C44.9003246,101.481223 46.5694881,103.972609 47.3587516,106.225293" id="Stroke-32" stroke="#1D2087" stroke-width="2.4968789" stroke-linecap="round"></path>
                    <path d="M83.5635955,100.981848 C89.2652185,100.981848 90.6452434,103.996829 91.553608,106.474981" id="Stroke-34" stroke="#1D2087" stroke-width="2.4968789" stroke-linecap="round"></path>
                    <polygon id="Fill-36" fill="#1D2087" points="130.634182 83.269613 60.3253184 80.665618 56.6798752 22.8563795 130.113333 21.8146816"></polygon>
                    <polygon id="Fill-38" fill="#1D2087" points="52.5133084 80.6656929 22.827166 79.623995 45.7427715 21.8147566 61.8878402 22.3356055"></polygon>
                    <path d="M37.6210487,87.2490137 L37.6210487,87.2490137 C38.3701124,86.749638 41.1329089,86.0769788 42.4195506,86.0063171 C42.5366542,85.9998252 42.6512609,86.0050687 42.7676155,86.020799 C43.5064419,86.1209238 46.110437,86.749638 47.3588764,87.2490137" id="Stroke-40" stroke="#1D2087" stroke-width="2.4968789" stroke-linecap="round"></path>
                    <path d="M82.3151561,87.9980774 L87.1129089,86.6158052 C88.5546067,86.3756055 90.0554806,86.4999501 91.4270162,86.6702372 L96.04799,87.9980774" id="Stroke-42" stroke="#1D2087" stroke-width="2.4968789" stroke-linecap="round"></path>
                    <path d="M51.5113858,137.941273 C50.4851685,137.325543 49.996779,136.132784 50.2447191,135.005194 C50.2859176,134.817678 53.5181273,124.633408 53.6010237,124.452634" id="Stroke-44" stroke="#1D2087" stroke-width="2.4968789" stroke-linecap="round"></path>
                    <path d="M71.5800499,150.702647 C71.6966542,153.462697 67.0092634,155.902147 61.1106367,156.151336 C55.21201,156.400774 50.3356055,154.365818 50.2187516,151.605768" id="Stroke-46" stroke="#1D2087" stroke-width="2.4968789" stroke-linecap="round"></path>
                </g>
            </g>
        </g>
    </g>
</svg>